# xmcd
#
# Track frame offsets:
#  182
#  19245
#  47215
#  78247
#  92807
#  106252
#  128112
#  170307
#  193072
#  214145
#  239120
#  259847
#  279172
#
# Disc length: 4081 seconds
#
# Revision: 0
# Processed by: cddbd v1.5.1PL2 Copyright (c) Steve Scherf et al.
# Submitted via: Collectorz.com_Music_Collector 6.11
#
DISCID=b50fef0d
DTITLE=MAHALIA JACKSON - WE SHAL OVERCOME
DYEAR=1996
DGENRE=Ballad - Easy Listening - Female
TTITLE0=RUSTY BELL
TTITLE1=IF I CAN HELP SOMEONE
TTITLE2=DIDNT IT RAIN
TTITLE3=HOLDING MY SAVIOURS HAND
TTITLE4=THIS IS MY FAITH
TTITLE5=ELIJAH ROCK
TTITLE6=WE SHALL OVERCOME
TTITLE7=WE HAVE COME MIGHTY LONG WAY
TTITLE8=HOW I GOT OVER
TTITLE9=I WOULD RATHER HAVE JESUS
TTITLE10=DOWN BY THE RIVERSIDE
TTITLE11=ITS IN MY HEART
TTITLE12=COME ON CHILDREN LETS SING
EXTD=
EXTT0=
EXTT1=
EXTT2=
EXTT3=
EXTT4=
EXTT5=
EXTT6=
EXTT7=
EXTT8=
EXTT9=
EXTT10=
EXTT11=
EXTT12=
PLAYORDER=
